<?xml version="1.0" encoding="UTF-8" standalone="no"?>
<!-- Created with Inkscape (http://www.inkscape.org/) -->
<svg
   xmlns:svg="http://www.w3.org/2000/svg"
   xmlns="http://www.w3.org/2000/svg"
   version="1.0"
   width="744.09448"
   height="1052.3622"
   id="svg2">
  <defs
     id="defs4" />
  <g
     id="layer1">
    <g
       transform="translate(0.1310767,-0.984819)"
       id="g2404">
      <path
         d="M 173.01591,491.28355 C 150.92122,490.2414 145.08261,455.10078 123.65736,461.91649 C 97.552349,465.03128 76.132379,446.15269 51.395159,442.51764 C 26.019899,436.77204 21.398149,409.20513 9.3083487,390.48418 C -2.6668313,369.83916 -0.22425126,344.08419 2.1846587,321.2554 C 11.917599,300.42077 13.177099,277.22174 24.065199,256.86362 C 33.574209,235.80744 60.051899,227.70372 81.093569,234.90931 C 94.710679,239.66731 103.99338,242.8956 105.76981,225.3796 C 127.8136,207.38104 90.091949,197.61812 87.230439,177.95819 C 78.060069,157.95961 71.360959,135.80767 49.639419,125.83511 C 26.744919,105.99856 32.577749,64.156506 61.014929,52.504026 C 83.508299,41.186696 107.55172,54.934396 124.2309,70.159006 C 145.83213,87.020366 157.41977,112.99322 166.73928,138.01389 C 179.23423,148.33248 191.10408,171.19337 205.63821,173.93726 C 238.84011,166.46555 199.79478,139.75418 211.78344,117.85078 C 216.41843,94.399906 178.50982,86.827416 182.776,61.282526 C 178.91264,33.930056 206.0072,9.0330262 232.91388,13.895026 C 251.42196,14.162436 267.19357,36.015706 278.48965,41.285306 C 287.89435,16.867616 316.28029,5.7957962 340.468,3.1466662 C 364.8736,-3.3770138 393.33962,1.5557662 406.45942,25.283606 C 436.65078,47.423136 461.16912,81.210866 462.32969,119.82045 C 465.79956,146.46935 469.62957,175.02549 460.87017,200.9141 C 451.63118,224.1792 422.60036,228.69173 414.92257,251.76742 C 400.61862,273.33106 370.9883,273.69294 349.88158,262.91368 C 326.58598,255.60077 341.04449,295.64988 328.67549,306.53549 C 329.31404,321.77046 346.67152,335.14406 354.25471,348.82354 C 369.18924,367.10635 376.04472,395.30221 358.78924,414.5548 C 339.36714,439.40791 295.98572,433.10323 283.93358,404.14395 C 269.75567,383.40381 255.43424,362.84213 239.47228,343.56357 C 225.85724,314.91061 223.33185,363.48228 210.32409,369.66961 C 193.83028,388.81593 210.97929,413.21062 224.06255,429.05801 C 237.70498,455.74638 216.64231,492.50348 185.94473,491.9099 C 181.62939,492.01943 177.28898,492.00453 173.01591,491.28355 z"
         id="path2406"
         style="fill:#000000" />
    </g>
  </g>
</svg>
